# Blender 5.0.0
# www.blender.org
mtllib Untitled.mtl
o Red_piette_NakedSingularity
v 0.018275 0.164061 -0.008230
v 0.023096 0.164061 -0.009548
v 0.026612 0.164061 -0.013098
v 0.027881 0.164061 -0.017932
v 0.026564 0.164061 -0.022752
v 0.023014 0.164061 -0.026268
v 0.018180 0.164061 -0.027538
v 0.013360 0.164061 -0.026221
v 0.009844 0.164061 -0.022670
v 0.008574 0.164061 -0.017837
v 0.009891 0.164061 -0.013016
v 0.013442 0.164061 -0.009500
v 0.018290 0.168490 -0.005271
v 0.024588 0.168490 -0.006992
v 0.029182 0.168490 -0.011631
v 0.030841 0.168490 -0.017946
v 0.029120 0.168490 -0.024244
v 0.024481 0.168490 -0.028838
v 0.018166 0.168490 -0.030497
v 0.011867 0.168490 -0.028777
v 0.007273 0.168490 -0.024137
v 0.005615 0.168490 -0.017822
v 0.007335 0.168490 -0.011524
v 0.011975 0.168490 -0.006930
v 0.018295 0.173715 -0.004232
v 0.025112 0.173715 -0.006094
v 0.030085 0.173715 -0.011116
v 0.031880 0.173715 -0.017951
v 0.030018 0.173715 -0.024768
v 0.024996 0.173715 -0.029741
v 0.018161 0.173715 -0.031537
v 0.011343 0.173715 -0.029674
v 0.006371 0.173715 -0.024652
v 0.004575 0.173715 -0.017817
v 0.006438 0.173715 -0.011000
v 0.011460 0.173715 -0.006027
v 0.018290 0.178939 -0.005271
v 0.024588 0.178939 -0.006992
v 0.029182 0.178939 -0.011631
v 0.030841 0.178939 -0.017946
v 0.029120 0.178939 -0.024244
v 0.024481 0.178939 -0.028838
v 0.018166 0.178939 -0.030497
v 0.011867 0.178939 -0.028777
v 0.007273 0.178939 -0.024137
v 0.005615 0.178939 -0.017822
v 0.007335 0.178939 -0.011524
v 0.011975 0.178939 -0.006930
v 0.018275 0.183368 -0.008230
v 0.023096 0.183368 -0.009548
v 0.026612 0.183368 -0.013098
v 0.027881 0.183368 -0.017932
v 0.026564 0.183368 -0.022752
v 0.023014 0.183368 -0.026268
v 0.018180 0.183368 -0.027538
v 0.013360 0.183368 -0.026221
v 0.009844 0.183368 -0.022670
v 0.008574 0.183368 -0.017837
v 0.009891 0.183368 -0.013016
v 0.013442 0.183368 -0.009500
v 0.018253 0.186328 -0.012660
v 0.020862 0.186328 -0.013372
v 0.022765 0.186328 -0.015294
v 0.023452 0.186328 -0.017910
v 0.022739 0.186328 -0.020519
v 0.020818 0.186328 -0.022422
v 0.018202 0.186328 -0.023109
v 0.015593 0.186328 -0.022396
v 0.013690 0.186328 -0.020474
v 0.013003 0.186328 -0.017859
v 0.013716 0.186328 -0.015250
v 0.015638 0.186328 -0.013347
v 0.018228 0.187367 -0.017884
v 0.018252 0.152337 -0.013002
v 0.020690 0.152337 -0.013668
v 0.021595 0.158688 -0.012118
v 0.018260 0.158688 -0.011207
v 0.022468 0.152337 -0.015464
v 0.024027 0.158688 -0.014574
v 0.023110 0.152337 -0.017908
v 0.024905 0.158688 -0.017917
v 0.022444 0.152337 -0.020346
v 0.023994 0.158688 -0.021251
v 0.020648 0.152337 -0.022125
v 0.021538 0.158688 -0.023683
v 0.018204 0.152337 -0.022767
v 0.018195 0.158688 -0.024561
v 0.015766 0.152337 -0.022101
v 0.014861 0.158688 -0.023651
v 0.013987 0.152337 -0.020305
v 0.012429 0.158688 -0.021194
v 0.013345 0.152337 -0.017860
v 0.011550 0.158688 -0.017851
v 0.014011 0.152337 -0.015422
v 0.012461 0.158688 -0.014517
v 0.015807 0.152337 -0.013644
v 0.014917 0.158688 -0.012085
v 0.018252 0.144264 -0.013002
v 0.020690 0.144264 -0.013668
v 0.018228 0.144264 -0.017884
v 0.022468 0.144264 -0.015464
v 0.023110 0.144264 -0.017908
v 0.022444 0.144264 -0.020346
v 0.020648 0.144264 -0.022125
v 0.018204 0.144264 -0.022767
v 0.015766 0.144264 -0.022101
v 0.013987 0.144264 -0.020305
v 0.013345 0.144264 -0.017860
v 0.014011 0.144264 -0.015422
v 0.015807 0.144264 -0.013644
v 0.019296 0.022550 -0.013974
v 0.021748 0.022550 -0.015875
v 0.022138 0.022550 -0.018953
v 0.020237 0.022550 -0.021405
v 0.017159 0.022550 -0.021795
v 0.014707 0.022550 -0.019894
v 0.014317 0.022550 -0.016816
v 0.016218 0.022550 -0.014364
v 0.019296 0.144264 -0.013974
v 0.021748 0.144264 -0.015875
v 0.022138 0.144264 -0.018953
v 0.020237 0.144264 -0.021405
v 0.017159 0.144264 -0.021795
v 0.014707 0.144264 -0.019894
v 0.014317 0.144264 -0.016816
v 0.016218 0.144264 -0.014364
v 0.018522 0.005049 -0.016808
v 0.019197 0.005049 -0.017331
v 0.018228 0.004521 -0.017884
v 0.019304 0.005049 -0.018178
v 0.018781 0.005049 -0.018853
v 0.017934 0.005049 -0.018961
v 0.017258 0.005049 -0.018437
v 0.017151 0.005049 -0.017590
v 0.017674 0.005049 -0.016915
v 0.019215 0.022575 -0.014271
v 0.021480 0.022575 -0.016028
v 0.021500 0.144264 -0.016016
v 0.019221 0.144264 -0.014250
v 0.021840 0.022575 -0.018871
v 0.021862 0.144264 -0.018877
v 0.020084 0.022575 -0.021137
v 0.020096 0.144264 -0.021156
v 0.017241 0.022575 -0.021497
v 0.017235 0.144264 -0.021519
v 0.014975 0.022575 -0.019741
v 0.014956 0.144264 -0.019752
v 0.014615 0.022575 -0.016897
v 0.014593 0.144264 -0.016891
v 0.016371 0.022575 -0.014632
v 0.016360 0.144264 -0.014612
v 0.018454 0.005221 -0.017056
v 0.018973 0.005221 -0.017459
v 0.018228 0.004831 -0.017884
v 0.019056 0.005221 -0.018110
v 0.018653 0.005221 -0.018630
v 0.018001 0.005221 -0.018712
v 0.017482 0.005221 -0.018310
v 0.017400 0.005221 -0.017658
v 0.017802 0.005221 -0.017139
vn 0.0049 -0.1380 0.9904
vn 0.4994 -0.1381 0.8553
vn 0.4618 -0.4017 0.7908
vn 0.0045 -0.4017 0.9158
vn 0.8602 -0.1380 0.4910
vn 0.7953 -0.4017 0.4540
vn 0.9904 -0.1380 -0.0049
vn 0.9158 -0.4016 -0.0045
vn 0.8553 -0.1380 -0.4994
vn 0.7908 -0.4016 -0.4618
vn 0.4910 -0.1380 -0.8602
vn 0.4540 -0.4017 -0.7953
vn -0.0049 -0.1380 -0.9904
vn -0.0045 -0.4017 -0.9158
vn -0.4994 -0.1381 -0.8553
vn -0.4618 -0.4017 -0.7908
vn -0.8602 -0.1380 -0.4910
vn -0.7953 -0.4017 -0.4540
vn -0.9904 -0.1380 0.0049
vn -0.9158 -0.4016 0.0045
vn -0.8553 -0.1380 0.4994
vn -0.7908 -0.4016 0.4618
vn -0.4910 -0.1380 0.8602
vn -0.4540 -0.4017 0.7953
vn 0.0042 -0.5265 0.8502
vn 0.4287 -0.5265 0.7342
vn 0.4713 -0.3558 0.8071
vn 0.0046 -0.3558 0.9346
vn 0.7384 -0.5265 0.4215
vn 0.8116 -0.3558 0.4633
vn 0.8502 -0.5265 -0.0042
vn 0.9346 -0.3558 -0.0046
vn 0.7342 -0.5265 -0.4287
vn 0.8071 -0.3558 -0.4713
vn 0.4215 -0.5265 -0.7384
vn 0.4633 -0.3558 -0.8116
vn -0.0042 -0.5265 -0.8502
vn -0.0046 -0.3558 -0.9346
vn -0.4287 -0.5265 -0.7342
vn -0.4713 -0.3558 -0.8071
vn -0.7384 -0.5265 -0.4215
vn -0.8116 -0.3558 -0.4633
vn -0.8502 -0.5265 0.0042
vn -0.9346 -0.3558 0.0046
vn -0.7342 -0.5265 0.4287
vn -0.8071 -0.3558 0.4713
vn -0.4215 -0.5265 0.7384
vn -0.4633 -0.3558 0.8116
vn 0.5042 -0.0000 0.8636
vn 0.0049 -0.0000 1.0000
vn 0.8685 -0.0000 0.4957
vn 1.0000 -0.0000 -0.0049
vn 0.8636 -0.0000 -0.5042
vn 0.4957 -0.0000 -0.8685
vn -0.0049 -0.0000 -1.0000
vn -0.5042 -0.0000 -0.8636
vn -0.8685 -0.0000 -0.4957
vn -1.0000 -0.0000 0.0049
vn -0.8636 -0.0000 0.5042
vn -0.4957 -0.0000 0.8685
vn 0.4713 0.3558 0.8071
vn 0.0046 0.3558 0.9346
vn 0.8116 0.3558 0.4633
vn 0.9346 0.3558 -0.0046
vn 0.8071 0.3558 -0.4713
vn 0.4633 0.3558 -0.8116
vn -0.0046 0.3558 -0.9346
vn -0.4713 0.3558 -0.8071
vn -0.8116 0.3558 -0.4633
vn -0.9346 0.3558 0.0046
vn -0.8071 0.3558 0.4713
vn -0.4633 0.3558 0.8116
vn 0.3778 0.6624 0.6470
vn 0.0037 0.6624 0.7492
vn 0.6506 0.6624 0.3714
vn 0.7492 0.6624 -0.0037
vn 0.6470 0.6624 -0.3778
vn 0.3714 0.6624 -0.6506
vn -0.0037 0.6624 -0.7492
vn -0.3778 0.6624 -0.6470
vn -0.6506 0.6624 -0.3714
vn -0.7492 0.6624 0.0037
vn -0.6470 0.6624 0.3778
vn -0.3714 0.6624 0.6506
vn 0.2459 0.8730 0.4211
vn 0.0024 0.8730 0.4877
vn 0.4235 0.8730 0.2418
vn 0.4877 0.8730 -0.0024
vn 0.4211 0.8730 -0.2459
vn 0.2418 0.8730 -0.4235
vn -0.0024 0.8730 -0.4877
vn -0.2459 0.8730 -0.4211
vn -0.4235 0.8730 -0.2418
vn -0.4877 0.8730 0.0024
vn -0.4211 0.8730 0.2459
vn -0.2418 0.8730 0.4235
vn 0.4889 -0.2444 0.8374
vn 0.0047 -0.2444 0.9697
vn -0.0000 -1.0000 -0.0000
vn 0.8421 -0.2444 0.4807
vn 0.9697 -0.2444 -0.0047
vn 0.8374 -0.2444 -0.4889
vn 0.4807 -0.2444 -0.8421
vn -0.0047 -0.2444 -0.9697
vn -0.4889 -0.2444 -0.8374
vn -0.8421 -0.2444 -0.4807
vn -0.9697 -0.2444 0.0047
vn -0.8374 -0.2444 0.4889
vn -0.4807 -0.2444 0.8421
vn -0.0000 1.0000 -0.0000
vn -0.2635 0.0130 -0.9646
vn -0.2636 0.0032 -0.9646
vn -0.8685 0.0032 -0.4957
vn -0.8684 0.0130 -0.4957
vn -0.9646 0.0032 0.2636
vn -0.9646 0.0130 0.2635
vn -0.4957 0.0032 0.8685
vn -0.4957 0.0130 0.8684
vn 0.2636 0.0032 0.9646
vn 0.2635 0.0130 0.9646
vn 0.8685 0.0032 0.4957
vn 0.8684 0.0130 0.4957
vn 0.9646 0.0032 -0.2636
vn 0.9646 0.0130 -0.2635
vn 0.4957 0.0032 -0.8685
vn 0.4957 0.0130 -0.8684
vn -0.8558 0.1702 -0.4885
vn -0.2597 0.1702 -0.9506
vn -0.9506 0.1702 0.2597
vn -0.4885 0.1702 0.8558
vn 0.2597 0.1702 0.9506
vn 0.8558 0.1702 0.4885
vn 0.9506 0.1702 -0.2597
vn 0.4885 0.1702 -0.8558
vn 0.2635 -0.0136 0.9646
vn 0.8684 -0.0136 0.4957
vn 0.8685 0.0016 0.4957
vn 0.2636 0.0016 0.9646
vn 0.9646 -0.0136 -0.2635
vn 0.9646 0.0016 -0.2636
vn 0.4957 -0.0136 -0.8684
vn 0.4957 0.0016 -0.8685
vn -0.2635 -0.0136 -0.9646
vn -0.2636 0.0016 -0.9646
vn -0.8684 -0.0136 -0.4957
vn -0.8685 0.0016 -0.4957
vn -0.9646 -0.0136 0.2635
vn -0.9646 0.0016 0.2636
vn -0.4957 -0.0136 0.8684
vn -0.4957 0.0016 0.8685
vn 0.8551 -0.1746 0.4882
vn 0.2596 -0.1746 0.9498
vn 0.9498 -0.1746 -0.2595
vn 0.4882 -0.1746 -0.8551
vn -0.2595 -0.1746 -0.9498
vn -0.8551 -0.1746 -0.4882
vn -0.9498 -0.1746 0.2595
vn -0.4882 -0.1746 0.8551
vt 0.751649 0.397631
vt 0.715984 0.416770
vt 0.666671 0.332424
vt 0.713524 0.308768
vt 0.682177 0.439355
vt 0.622615 0.361317
vt 0.650862 0.465124
vt 0.582127 0.395030
vt 0.622578 0.493662
vt 0.545991 0.433096
vt 0.597745 0.524403
vt 0.515039 0.474947
vt 0.576607 0.556626
vt 0.490193 0.519858
vt 0.559145 0.589465
vt 0.472559 0.566879
vt 0.544891 0.621944
vt 0.463650 0.614759
vt 0.897836 0.353704
vt 0.862346 0.360677
vt 0.862237 0.273598
vt 0.910817 0.275859
vt 0.825628 0.369841
vt 0.812305 0.278845
vt 0.788457 0.382026
vt 0.762369 0.290759
vt 0.683310 0.224835
vt 0.624453 0.253139
vt 0.589826 0.185939
vt 0.658665 0.153638
vt 0.569529 0.288470
vt 0.525782 0.226657
vt 0.519239 0.330382
vt 0.467160 0.275368
vt 0.474461 0.378555
vt 0.414903 0.331900
vt 0.436318 0.432707
vt 0.370388 0.396201
vt 0.406263 0.492506
vt 0.335501 0.468195
vt 0.386269 0.557434
vt 0.312503 0.547700
vt 0.379664 0.626358
vt 0.303576 0.634825
vt 0.944186 0.202064
vt 0.877319 0.190556
vt 0.890198 0.118564
vt 0.974999 0.134803
vt 0.810440 0.192276
vt 0.809166 0.118143
vt 0.745504 0.204216
vt 0.731886 0.130574
vt 0.555519 0.119976
vt 0.633745 0.083699
vt 0.482823 0.165906
vt 0.416219 0.221115
vt 0.356701 0.285582
vt 0.305880 0.359426
vt 0.266146 0.442542
vt 0.240425 0.533866
vt 0.229256 0.629797
vt 0.898283 0.045286
vt 0.993344 0.062243
vt 0.805608 0.044397
vt 0.717200 0.057971
vt 0.484200 0.695828
vt 0.542201 0.748614
vt 0.508854 0.770989
vt 0.466504 0.731878
vt 0.566042 0.823329
vt 0.525975 0.826035
vt 0.549333 0.899958
vt 0.513281 0.882269
vt 0.496547 0.957969
vt 0.474169 0.924624
vt 0.421821 0.981816
vt 0.419119 0.941749
vt 0.345183 0.965097
vt 0.362881 0.929050
vt 0.287176 0.912298
vt 0.320528 0.889932
vt 0.263343 0.837572
vt 0.303410 0.834880
vt 0.280066 0.760944
vt 0.316112 0.778646
vt 0.332860 0.702945
vt 0.355227 0.736298
vt 0.407577 0.679112
vt 0.410274 0.719180
vt 0.477187 0.791989
vt 0.449578 0.765897
vt 0.488052 0.828390
vt 0.479261 0.865347
vt 0.453169 0.892959
vt 0.416766 0.903825
vt 0.379807 0.895032
vt 0.352197 0.868937
vt 0.341333 0.832533
vt 0.350128 0.795576
vt 0.376222 0.767967
vt 0.412623 0.757104
vt 0.446024 0.811704
vt 0.432447 0.798552
vt 0.451207 0.829883
vt 0.446606 0.848218
vt 0.433453 0.861796
vt 0.415274 0.866979
vt 0.396939 0.862378
vt 0.383361 0.849225
vt 0.378179 0.831045
vt 0.382781 0.812710
vt 0.395933 0.799133
vt 0.414112 0.793951
vt 0.698879 0.642649
vt 0.793242 0.611059
vt 0.805009 0.802938
vt 0.632954 0.717188
vt 0.613130 0.814704
vt 0.644720 0.909068
vt 0.719259 0.974993
vt 0.816775 0.994817
vt 0.911138 0.963227
vt 0.977064 0.888687
vt 0.996888 0.791171
vt 0.965298 0.696808
vt 0.890758 0.630883
vt 0.414692 0.830465
vt 0.806874 0.497146
vt 0.778356 0.512424
vt 0.751637 0.530044
vt 0.726904 0.550034
vt 0.704251 0.572291
vt 0.683612 0.596620
vt 0.664682 0.622760
vt 0.646796 0.650385
vt 0.628785 0.679067
vt 0.933867 0.450434
vt 0.900745 0.461775
vt 0.868331 0.472494
vt 0.836951 0.483996
vt 0.129531 0.990234
vt 0.129531 0.009766
vt 0.104140 0.009766
vt 0.104140 0.990234
vt 0.078749 0.009766
vt 0.078749 0.990234
vt 0.053359 0.009766
vt 0.053359 0.990234
vt 0.029921 0.009766
vt 0.029921 0.990234
vt 0.004531 0.009766
vt 0.004531 0.990234
vt 0.203749 0.990234
vt 0.203749 0.009766
vt 0.178359 0.009766
vt 0.178359 0.990234
vt 0.154921 0.009766
vt 0.154921 0.990234
vt 0.405532 0.143668
vt 0.418167 0.144969
vt 0.407178 0.136955
vt 0.405710 0.150625
vt 0.407801 0.157497
vt 0.411867 0.163888
vt 0.417916 0.169273
vt 0.415527 0.125438
vt 0.421908 0.121201
vt 0.410553 0.130781
vt 0.243333 0.130747
vt 0.248134 0.100150
vt 0.243336 0.161677
vt 0.248070 0.192030
vt 0.257244 0.220914
vt 0.270241 0.247543
vt 0.271356 0.043499
vt 0.288876 0.019059
vt 0.257594 0.070785
s 1
usemtl plastic_red
f 74/1/1 75/2/2 76/3/3 77/4/4
f 75/2/2 78/5/5 79/6/6 76/3/3
f 78/5/5 80/7/7 81/8/8 79/6/6
f 80/7/7 82/9/9 83/10/10 81/8/8
f 82/9/9 84/11/11 85/12/12 83/10/10
f 84/11/11 86/13/13 87/14/14 85/12/12
f 86/13/13 88/15/15 89/16/16 87/14/14
f 88/15/15 90/17/17 91/18/18 89/16/16
f 90/19/17 92/20/19 93/21/20 91/22/18
f 92/20/19 94/23/21 95/24/22 93/21/20
f 94/23/21 96/25/23 97/26/24 95/24/22
f 96/25/23 74/1/1 77/4/4 97/26/24
f 1/27/25 2/28/26 14/29/27 13/30/28
f 2/28/26 3/31/29 15/32/30 14/29/27
f 3/31/29 4/33/31 16/34/32 15/32/30
f 4/33/31 5/35/33 17/36/34 16/34/32
f 5/35/33 6/37/35 18/38/36 17/36/34
f 6/37/35 7/39/37 19/40/38 18/38/36
f 7/39/37 8/41/39 20/42/40 19/40/38
f 8/41/39 9/43/41 21/44/42 20/42/40
f 9/45/41 10/46/43 22/47/44 21/48/42
f 10/46/43 11/49/45 23/50/46 22/47/44
f 11/49/45 12/51/47 24/52/48 23/50/46
f 12/51/47 1/27/25 13/30/28 24/52/48
f 13/30/28 14/29/27 26/53/49 25/54/50
f 14/29/27 15/32/30 27/55/51 26/53/49
f 15/32/30 16/34/32 28/56/52 27/55/51
f 16/34/32 17/36/34 29/57/53 28/56/52
f 17/36/34 18/38/36 30/58/54 29/57/53
f 18/38/36 19/40/38 31/59/55 30/58/54
f 19/40/38 20/42/40 32/60/56 31/59/55
f 20/42/40 21/44/42 33/61/57 32/60/56
f 21/48/42 22/47/44 34/62/58 33/63/57
f 22/47/44 23/50/46 35/64/59 34/62/58
f 23/50/46 24/52/48 36/65/60 35/64/59
f 24/52/48 13/30/28 25/54/50 36/65/60
f 25/66/50 26/67/49 38/68/61 37/69/62
f 26/67/49 27/70/51 39/71/63 38/68/61
f 27/70/51 28/72/52 40/73/64 39/71/63
f 28/72/52 29/74/53 41/75/65 40/73/64
f 29/74/53 30/76/54 42/77/66 41/75/65
f 30/76/54 31/78/55 43/79/67 42/77/66
f 31/78/55 32/80/56 44/81/68 43/79/67
f 32/80/56 33/82/57 45/83/69 44/81/68
f 33/82/57 34/84/58 46/85/70 45/83/69
f 34/84/58 35/86/59 47/87/71 46/85/70
f 35/86/59 36/88/60 48/89/72 47/87/71
f 36/88/60 25/66/50 37/69/62 48/89/72
f 37/69/62 38/68/61 50/90/73 49/91/74
f 38/68/61 39/71/63 51/92/75 50/90/73
f 39/71/63 40/73/64 52/93/76 51/92/75
f 40/73/64 41/75/65 53/94/77 52/93/76
f 41/75/65 42/77/66 54/95/78 53/94/77
f 42/77/66 43/79/67 55/96/79 54/95/78
f 43/79/67 44/81/68 56/97/80 55/96/79
f 44/81/68 45/83/69 57/98/81 56/97/80
f 45/83/69 46/85/70 58/99/82 57/98/81
f 46/85/70 47/87/71 59/100/83 58/99/82
f 47/87/71 48/89/72 60/101/84 59/100/83
f 48/89/72 37/69/62 49/91/74 60/101/84
f 49/91/74 50/90/73 62/102/85 61/103/86
f 50/90/73 51/92/75 63/104/87 62/102/85
f 51/92/75 52/93/76 64/105/88 63/104/87
f 52/93/76 53/94/77 65/106/89 64/105/88
f 53/94/77 54/95/78 66/107/90 65/106/89
f 54/95/78 55/96/79 67/108/91 66/107/90
f 55/96/79 56/97/80 68/109/92 67/108/91
f 56/97/80 57/98/81 69/110/93 68/109/92
f 57/98/81 58/99/82 70/111/94 69/110/93
f 58/99/82 59/100/83 71/112/95 70/111/94
f 59/100/83 60/101/84 72/113/96 71/112/95
f 60/101/84 49/91/74 61/103/86 72/113/96
f 99/114/97 98/115/98 100/116/99
f 101/117/100 99/114/97 100/116/99
f 102/118/101 101/117/100 100/116/99
f 103/119/102 102/118/101 100/116/99
f 104/120/103 103/119/102 100/116/99
f 105/121/104 104/120/103 100/116/99
f 106/122/105 105/121/104 100/116/99
f 107/123/106 106/122/105 100/116/99
f 108/124/107 107/123/106 100/116/99
f 109/125/108 108/124/107 100/116/99
f 110/126/109 109/125/108 100/116/99
f 98/115/98 110/126/109 100/116/99
f 61/103/86 62/102/85 73/127/110
f 62/102/85 63/104/87 73/127/110
f 63/104/87 64/105/88 73/127/110
f 64/105/88 65/106/89 73/127/110
f 65/106/89 66/107/90 73/127/110
f 66/107/90 67/108/91 73/127/110
f 67/108/91 68/109/92 73/127/110
f 68/109/92 69/110/93 73/127/110
f 69/110/93 70/111/94 73/127/110
f 70/111/94 71/112/95 73/127/110
f 71/112/95 72/113/96 73/127/110
f 72/113/96 61/103/86 73/127/110
f 2/28/26 1/27/25 77/4/4 76/3/3
f 3/31/29 2/28/26 76/3/3 79/6/6
f 4/33/31 3/31/29 79/6/6 81/8/8
f 5/35/33 4/33/31 81/8/8 83/10/10
f 6/37/35 5/35/33 83/10/10 85/12/12
f 7/39/37 6/37/35 85/12/12 87/14/14
f 8/41/39 7/39/37 87/14/14 89/16/16
f 9/43/41 8/41/39 89/16/16 91/18/18
f 10/46/43 9/45/41 91/22/18 93/21/20
f 11/49/45 10/46/43 93/21/20 95/24/22
f 12/51/47 11/49/45 95/24/22 97/26/24
f 1/27/25 12/51/47 97/26/24 77/4/4
f 75/2/2 74/1/1 98/128/98 99/129/97
f 78/5/5 75/2/2 99/129/97 101/130/100
f 80/7/7 78/5/5 101/130/100 102/131/101
f 82/9/9 80/7/7 102/131/101 103/132/102
f 84/11/11 82/9/9 103/132/102 104/133/103
f 86/13/13 84/11/11 104/133/103 105/134/104
f 88/15/15 86/13/13 105/134/104 106/135/105
f 90/17/17 88/15/15 106/135/105 107/136/106
f 92/20/19 90/19/17 107/137/106 108/138/107
f 94/23/21 92/20/19 108/138/107 109/139/108
f 96/25/23 94/23/21 109/139/108 110/140/109
f 74/1/1 96/25/23 110/140/109 98/128/98
usemtl glass
f 136/141/111 139/142/112 138/143/113 137/144/114
f 137/144/114 138/143/113 141/145/115 140/146/116
f 140/146/116 141/145/115 143/147/117 142/148/118
f 142/148/118 143/147/117 145/149/119 144/150/120
f 144/150/120 145/149/119 147/151/121 146/152/122
f 146/153/122 147/154/121 149/155/123 148/156/124
f 148/156/124 149/155/123 151/157/125 150/158/126
f 150/158/126 151/157/125 139/142/112 136/141/111
f 153/159/127 154/160/110 152/161/128
f 155/162/129 154/160/110 153/159/127
f 156/163/130 154/160/110 155/162/129
f 157/164/131 154/160/110 156/163/130
f 158/165/132 154/160/110 157/164/131
f 159/166/133 154/160/110 158/167/132
f 160/168/134 154/160/110 159/166/133
f 152/161/128 154/160/110 160/168/134
f 137/169/114 153/159/127 152/161/128 136/170/111
f 140/171/116 155/162/129 153/159/127 137/169/114
f 142/172/118 156/163/130 155/162/129 140/171/116
f 144/173/120 157/164/131 156/163/130 142/172/118
f 146/174/122 158/165/132 157/164/131 144/173/120
f 148/175/124 159/166/133 158/167/132 146/176/122
f 150/177/126 160/168/134 159/166/133 148/175/124
f 136/170/111 152/161/128 160/168/134 150/177/126
f 111/141/135 112/144/136 120/143/137 119/142/138
f 112/144/136 113/146/139 121/145/140 120/143/137
f 113/146/139 114/148/141 122/147/142 121/145/140
f 114/148/141 115/150/143 123/149/144 122/147/142
f 115/150/143 116/152/145 124/151/146 123/149/144
f 116/153/145 117/156/147 125/155/148 124/154/146
f 117/156/147 118/158/149 126/157/150 125/155/148
f 118/158/149 111/141/135 119/142/138 126/157/150
f 128/159/151 127/161/152 129/160/99
f 130/162/153 128/159/151 129/160/99
f 131/163/154 130/162/153 129/160/99
f 132/164/155 131/163/154 129/160/99
f 133/165/156 132/164/155 129/160/99
f 134/166/157 133/167/156 129/160/99
f 135/168/158 134/166/157 129/160/99
f 127/161/152 135/168/158 129/160/99
f 112/169/136 111/170/135 127/161/152 128/159/151
f 113/171/139 112/169/136 128/159/151 130/162/153
f 114/172/141 113/171/139 130/162/153 131/163/154
f 115/173/143 114/172/141 131/163/154 132/164/155
f 116/174/145 115/173/143 132/164/155 133/165/156
f 117/175/147 116/176/145 133/167/156 134/166/157
f 118/177/149 117/175/147 134/166/157 135/168/158
f 111/170/135 118/177/149 135/168/158 127/161/152
f 120/143/137 138/143/113 139/142/112 119/142/138
f 121/145/140 141/145/115 138/143/113 120/143/137
f 122/147/142 143/147/117 141/145/115 121/145/140
f 123/149/144 145/149/119 143/147/117 122/147/142
f 124/151/146 147/151/121 145/149/119 123/149/144
f 125/155/148 149/155/123 147/154/121 124/154/146
f 126/157/150 151/157/125 149/155/123 125/155/148
f 119/142/138 139/142/112 151/157/125 126/157/150
